<svg height='300px' width='300px'  fill="#000000" xmlns="http://www.w3.org/2000/svg" xmlns:xlink="http://www.w3.org/1999/xlink" version="1.1" x="0px" y="0px" viewBox="-55 147 500 500" style="enable-background:new -55 147 500 500;" xml:space="preserve"><path d="M195,147C57.2,147-54.1,257.7-55,395.7C-55.8,528,45.7,636.6,174.9,646.9c3.8-30.8,6.9-61.8,9.6-94.3  c-14.5,20.5-29.2,36.6-30.5,27.8c-2-13.9-33.8-143.8-30.8-189s34.1-77.7,27.8-91.9c-2.4-5.5-14.5-17.8-13.7-34.9  c0.6-12.7,4.9-20.8,5.2-23.1s-11.2-1.3-11.2-3.7c-0.1-2.9,5.8-6.4,6.3-9.8c0.5-3.5-16.5-7.1-14.1-8.3c100.3-50.2,115.5,11,115.5,11  c0.3,0.8,0.5,1.8,0.5,2.8c24.1,3.4,70.6,10.2,70.7,12c0.2,1.9-53.8,12.4-75.3,16.5c-0.8,9.2,0.7,18.3,8.9,24.9  c31.5,25,22.8,108.9,3.2,161.2c-3.9,10.5-6.6,18.8-8.7,25.3c-18,55.5-26.4,113.7-24.5,172.1c0,0.5,0,1,0,1.5  C343.1,637.3,445,529.3,445,397.4C445,259.1,333.1,147,195,147z"></path></svg>